# xmcd CD database file
#
# Track frame offsets:
#	150
#	18727
#	40770
#	57287
#	77590
#	97585
#	122150
#	141665
#
# Disc length: 2078 seconds
#
# Revision: 0
# Processed by: cddbd v1.5PL3 Copyright (c) Steve Scherf et al.
# Submitted via: CDex 1.51
#
DISCID=64081c08
DTITLE=Orquesta Crea Concienca - Impacto 2000
DYEAR=2000
DGENRE=Salsa
TTITLE0=La universidad de la vida
TTITLE1=Este es un Hogar Seguro
TTITLE2=Señora felicidad
TTITLE3=Canto a mi tierra
TTITLE4=La historia de Juan Dapena
TTITLE5=Crea conciencia
TTITLE6=El que yo fui
TTITLE7=Crea en Dios
EXTD=YEAR: 2000
EXTT0=
EXTT1=
EXTT2=
EXTT3=
EXTT4=
EXTT5=
EXTT6=
EXTT7=
PLAYORDER=
